<svg fill="none" height="300" width="300" xmlns="http://www.w3.org/2000/svg"><path d="m142.843 187.832v16.168h-76.1958v-16.168h29.584v-71.896h-22.876v-12.384c6.192-1.032 11.4667-2.236 15.824-3.612 4.472-1.4907 8.6-3.268 12.3838-5.332h14.448v93.224z" fill="#9f9f9f"/><path d="m156.88 192.476c8.6-7.339 16.283-14.047 23.048-20.124 6.765-6.192 12.499-11.925 17.2-17.2 4.816-5.275 8.485-10.205 11.008-14.792s3.784-9.001 3.784-13.244c0-5.848-1.777-10.435-5.332-13.76-3.555-3.44-8.772-5.16-15.652-5.16-4.816 0-9.231 1.204-13.244 3.612-3.899 2.408-7.511 5.275-10.836 8.6l-10.836-11.008c5.275-5.389 10.836-9.5173 16.684-12.384 5.848-2.9813 12.785-4.472 20.812-4.472 5.619 0 10.721.8027 15.308 2.408s8.485 3.8987 11.696 6.88c3.325 2.867 5.848 6.364 7.568 10.492 1.835 4.128 2.752 8.715 2.752 13.76 0 4.816-1.204 9.747-3.612 14.792-2.293 4.931-5.447 9.976-9.46 15.136-4.013 5.045-8.829 10.263-14.448 15.652-5.504 5.389-11.409 10.951-17.716 16.684 3.211-.229 6.593-.459 10.148-.688 3.555-.344 6.823-.516 9.804-.516h30.96v16.856h-79.636z" fill="#9f9f9f"/><path clip-rule="evenodd" d="m284 150c0 74.006-59.994 134-134 134-35.528 0-67.8268-13.827-91.8087-36.392l189.4167-189.4167c22.565 23.9819 36.392 56.2807 36.392 91.8087zm-235.495 87.495 188.99-188.99c-23.476-20.256-54.055-32.505-87.495-32.505-74.0062 0-134 59.9938-134 134 0 33.44 12.249 64.019 32.505 87.495zm249.495-87.495c0 81.738-66.262 148-148 148-81.7381 0-148-66.262-148-148 0-81.7381 66.2619-148 148-148 81.738 0 148 66.2619 148 148z" fill="#bf2131" fill-rule="evenodd"/></svg>